/vscmnt/brussel_pixiu_data/_data_brussel/112/vsc11236/PredSimResults/SUBJ09mtu3D/worker7.mot
version=1
nRows=4
nColumns=50
inDegrees=yes
endheader
                time	         pelvis_tilt	         pelvis_list	     pelvis_rotation	           pelvis_tx	           pelvis_ty	           pelvis_tz	       hip_flexion_r	     hip_adduction_r	      hip_rotation_r	        knee_angle_r	       ankle_angle_r	         mtp_angle_r	       hip_flexion_l	     hip_adduction_l	      hip_rotation_l	        knee_angle_l	       ankle_angle_l	         mtp_angle_l	    lumbar_extension	      lumbar_bending	     lumbar_rotation	 ercspn_r/activation	 intobl_r/activation	 extobl_r/activation	    abd_r/activation	    add_r/activation	hamstrings_r/activation	bifemsh_r/activation	glut_max_r/activation	iliopsoas_r/activation	rect_fem_r/activation	  vasti_r/activation	gastroc_r/activation	 soleus_r/activation	tib_ant_r/activation	 ercspn_l/activation	 intobl_l/activation	 extobl_l/activation	    abd_l/activation	    add_l/activation	hamstrings_l/activation	bifemsh_l/activation	glut_max_l/activation	iliopsoas_l/activation	rect_fem_l/activation	  vasti_l/activation	gastroc_l/activation	 soleus_l/activation	tib_ant_l/activation	
          1.17981002	         -2.20346265	         -1.52212351	         10.48909982	          1.46296443	          0.98808399	         -0.01149577	         28.29547917	         -2.33524703	         -7.33793867	         -6.68425091	          7.77932969	          0.20550827	        -14.02512452	         -2.94212889	          9.03086104	         -7.89259722	         15.57523904	         19.52709105	        -12.80852846	          0.75330030	         -7.98644266	          0.04467199	          0.17440700	          0.02920175	          0.06547175	          0.10539448	          0.05590944	          0.57445199	          0.00999999	          0.26544953	          0.00999999	          0.00999999	          0.05067613	          0.00999999	          0.29131426	          0.01116626	          0.00999999	          0.00999999	          0.06020279	          0.00999999	          0.03933004	          0.25079141	          0.05243558	          0.59983848	          0.00999999	          0.00999999	          0.49225154	          0.45056866	          0.01223862	
          1.19160812	         -2.34170589	         -1.64805779	         10.23791199	          1.48096283	          0.98535579	         -0.01070882	         28.33389108	         -1.91872851	         -6.46093242	         -8.00027242	          7.35822212	          0.21019793	        -14.45999508	         -3.08112190	          8.26774432	         -8.83935900	         15.19316295	         21.32198524	        -12.32091048	          1.12190426	         -8.18952987	          0.03733134	          0.14574787	          0.02440323	          0.09423032	          0.11332420	          0.07265334	          0.48005615	          0.01634433	          0.22182999	          0.00999999	          0.00999999	          0.04234886	          0.01431934	          0.28429021	          0.01527404	          0.00999999	          0.00999999	          0.05031007	          0.00999999	          0.03552092	          0.20958054	          0.04381919	          0.61310356	          0.00999999	          0.00999999	          0.47890417	          0.42879294	          0.01022753	
          1.20340622	         -2.46029811	         -1.74206878	          9.93831306	          1.49922039	          0.98293173	         -0.00982432	         28.25985448	         -1.47953350	         -5.51924493	         -9.39407972	          6.96456706	          0.19689283	        -14.83293378	         -3.17187464	          7.49514089	         -9.96057528	         14.62573126	         23.18198481	        -11.83728202	          1.45714990	         -8.36100021	          0.03119693	          0.12179810	          0.02039321	          0.13555417	          0.11168497	          0.08026113	          0.40117174	          0.08089646	          0.18537815	          0.00999999	          0.00999999	          0.03538995	          0.01196634	          0.34927567	          0.05106736	          0.00999999	          0.00999999	          0.04204295	          0.00999999	          0.03350117	          0.17514157	          0.03739887	          0.62414787	          0.00999999	          0.02453624	          0.45487307	          0.40030584	          0.00999999	
          1.21520432	         -2.56037376	         -1.80223548	          9.59080229	          1.51741540	          0.98111144	         -0.00884510	         28.14945612	         -1.03026160	         -4.54673709	        -10.72328603	          6.42533334	          0.17685727	        -15.03679299	         -3.19987211	          6.71471955	        -11.39883973	         13.82637029	         25.10758295	        -11.39425323	          1.75900705	         -8.49711164	          0.04199906	          0.10178383	          0.01704213	          0.18207319	          0.15215352	          0.07679009	          0.33524988	          0.12553922	          0.15491620	          0.00999999	          0.00999999	          0.02957456	          0.00999999	          0.38217725	          0.09521778	          0.00999999	          0.00999999	          0.03513432	          0.02729662	          0.03091123	          0.14636173	          0.03125337	          0.63615759	          0.01713502	          0.02050437	          0.41993129	          0.33452629	          0.00999999	
